<svg width="200" height="200" viewBox="0 0 200 200" xmlns="http://www.w3.org/2000/svg">
  <defs>
    <linearGradient id="sandGradient" x1="0%" y1="0%" x2="0%" y2="100%">
      <stop offset="0%" style="stop-color:#FFD700;stop-opacity:1" />
      <stop offset="100%" style="stop-color:#FFA500;stop-opacity:1" />
    </linearGradient>
    <linearGradient id="glassGradient" x1="0%" y1="0%" x2="0%" y2="100%">
      <stop offset="0%" style="stop-color:#87CEEB;stop-opacity:0.3" />
      <stop offset="100%" style="stop-color:#4682B4;stop-opacity:0.5" />
    </linearGradient>
    <filter id="dropShadow" x="-20%" y="-20%" width="140%" height="140%">
      <feGaussianBlur in="SourceAlpha" stdDeviation="3"/>
      <feOffset dx="2" dy="2" result="offsetblur"/>
      <feComponentTransfer>
        <feFuncA type="linear" slope="0.5"/>
      </feComponentTransfer>
      <feMerge>
        <feMergeNode/>
        <feMergeNode in="SourceGraphic"/>
      </feMerge>
    </filter>
  </defs>

  <g filter="url(#dropShadow)">
    <!-- Hourglass Top Bulb -->
    <path d="M 60,30 C 60,50 140,50 140,30 L 120,30 C 120,40 80,40 80,30 Z" fill="url(#glassGradient)" />
    <path d="M 60,30 C 60,10 140,10 140,30" fill="url(#glassGradient)" />

    <!-- Hourglass Bottom Bulb -->
    <path d="M 60,170 C 60,150 140,150 140,170 L 120,170 C 120,160 80,160 80,170 Z" fill="url(#glassGradient)" />
    <path d="M 60,170 C 60,190 140,190 140,170" fill="url(#glassGradient)" />

    <!-- Hourglass Middle -->
    <path d="M 80,95 L 120,105" stroke="url(#glassGradient)" stroke-width="2" />

    <!-- Falling Sand (Flow) -->
    <path d="M 100,50 V 100" stroke="url(#sandGradient)" stroke-width="4" stroke-linecap="round">
      <animate attributeName="stroke-dasharray" values="0 100; 10 90; 0 100" dur="2s" repeatCount="indefinite" />
    </path>

    <!-- Sand Pile -->
    <path d="M 80,150 Q 100,130 120,150 Z" fill="url(#sandGradient)" />

    <!-- Water Drop / Flow Shape -->
    <path d="M100, 20 C 70,20 70,60 100,100 C 130,60 130,20 100,20 Z" fill="rgba(70, 130, 180, 0.3)" transform="translate(0, 50)">
        <animateTransform attributeName="transform" type="translate" values="0 0; 0 5; 0 0" dur="1.5s" repeatCount="indefinite"/>
    </path>
  </g>
</svg>